General

Complete name : Flypaper.avi
Format : AVI
Format/Info : Audio Video Interleave
File size : 587 MiB
Duration : 1h 27mn
Overall bit rate : 941 Kbps

Video

ID : 0
Format : MPEG-4 Visual
Format profile : Advanced Simple@L5
Format settings, BVOP : 2
Format settings, QPel : No
Format settings, GMC : No warppoints
Format settings, Matrix : Default (H.263)
Codec ID : XVID
Codec ID/Hint : XviD
Duration : 1h 27mn
Bit rate : 800 Kbps
Width : 640 pixels
Height : 280 pixels
Display aspect ratio : 3.251
Frame rate : 25.000 fps
Color space : YUV
Chroma subsampling : 4:2:0
Bit depth : 8 bits
Scan type : Progressive
Compression mode : Lossy
Bits/(Pixel*Frame) : 0.179
Stream size : 499 MiB (85%)
Writing library : XviD 63

Audio

ID : 1
Format : MPEG Audio
Format version : Version 1
Format profile : Layer 3
Codec ID : 55
Codec ID/Hint : MP3
Duration : 1h 27mn
Bit rate mode : Constant
Bit rate : 128 Kbps
Channel(s) : 2 channels
Sampling rate : 48.0 KHz
Compression mode : Lossy
Stream size : 79.9 MiB (14%)
Alignment : Split accross interleaves
Interleave, duration : 24 ms (0.60 video frame)
Writing library : LAME3.98.4
 
http://www.imdb.com/title/tt1541160/

screens: 
http://images.oneddl.com/images/9upw8i7s9y55x4rqr7j.png 
http://images.oneddl.com/images/5z41naqoy1bvvxw8jff.png 
http://images.oneddl.com/images/aajf70cfjjlndacqggo4.png 
http://images.oneddl.com/images/fwu5hjmslz58iqyzo7w.png

